<mxfile host="app.diagrams.net" modified="2021-09-01T09:05:26.182Z" agent="5.0 (Windows NT 6.1; Win64; x64) AppleWebKit/537.36 (KHTML, like Gecko) Chrome/92.0.4515.159 Safari/537.36" etag="qii0IVstfNXxuoVzRnQZ" version="15.0.3" type="github" pages="3">
  <diagram id="985ZaxFpaZ_qsSHkw53R" name="Page-1">
    <mxGraphModel dx="868" dy="494" grid="1" gridSize="10" guides="1" tooltips="1" connect="1" arrows="1" fold="1" page="1" pageScale="1" pageWidth="850" pageHeight="1100" math="0" shadow="0">
      <root>
        <mxCell id="0" />
        <mxCell id="1" parent="0" />
        <mxCell id="MsaNVr8gz5ZtD6SlP7SV-8" style="edgeStyle=orthogonalEdgeStyle;rounded=0;orthogonalLoop=1;jettySize=auto;html=1;" parent="1" source="MsaNVr8gz5ZtD6SlP7SV-1" edge="1">
          <mxGeometry relative="1" as="geometry">
            <mxPoint x="440" y="260" as="targetPoint" />
          </mxGeometry>
        </mxCell>
        <mxCell id="MsaNVr8gz5ZtD6SlP7SV-1" value="config File" style="rounded=0;whiteSpace=wrap;html=1;" parent="1" vertex="1">
          <mxGeometry x="200" y="230" width="120" height="60" as="geometry" />
        </mxCell>
        <mxCell id="MsaNVr8gz5ZtD6SlP7SV-4" value="" style="rounded=0;whiteSpace=wrap;html=1;" parent="1" vertex="1">
          <mxGeometry x="480" y="190" width="130" height="60" as="geometry" />
        </mxCell>
        <mxCell id="MsaNVr8gz5ZtD6SlP7SV-5" value="" style="rounded=0;whiteSpace=wrap;html=1;" parent="1" vertex="1">
          <mxGeometry x="480" y="100" width="120" height="60" as="geometry" />
        </mxCell>
        <mxCell id="MsaNVr8gz5ZtD6SlP7SV-6" value="" style="rounded=0;whiteSpace=wrap;html=1;" parent="1" vertex="1">
          <mxGeometry x="480" y="270" width="130" height="60" as="geometry" />
        </mxCell>
        <mxCell id="MsaNVr8gz5ZtD6SlP7SV-7" value="" style="rounded=0;whiteSpace=wrap;html=1;" parent="1" vertex="1">
          <mxGeometry x="480" y="370" width="130" height="60" as="geometry" />
        </mxCell>
        <mxCell id="MsaNVr8gz5ZtD6SlP7SV-10" value="" style="endArrow=none;html=1;" parent="1" edge="1">
          <mxGeometry width="50" height="50" relative="1" as="geometry">
            <mxPoint x="440" y="400" as="sourcePoint" />
            <mxPoint x="440" y="120" as="targetPoint" />
          </mxGeometry>
        </mxCell>
        <mxCell id="MsaNVr8gz5ZtD6SlP7SV-11" value="" style="endArrow=classic;html=1;shape=flexArrow;" parent="1" edge="1">
          <mxGeometry relative="1" as="geometry">
            <mxPoint x="370" y="260" as="sourcePoint" />
            <mxPoint x="470" y="260" as="targetPoint" />
          </mxGeometry>
        </mxCell>
        <mxCell id="MsaNVr8gz5ZtD6SlP7SV-12" value="Label" style="edgeLabel;resizable=0;html=1;align=center;verticalAlign=middle;" parent="MsaNVr8gz5ZtD6SlP7SV-11" connectable="0" vertex="1">
          <mxGeometry relative="1" as="geometry" />
        </mxCell>
      </root>
    </mxGraphModel>
  </diagram>
  <diagram id="PzXgLKhyCfmJgVEpBKhZ" name="Page-2">
    <mxGraphModel dx="868" dy="494" grid="1" gridSize="10" guides="1" tooltips="1" connect="1" arrows="1" fold="1" page="1" pageScale="1" pageWidth="850" pageHeight="1100" math="0" shadow="0">
      <root>
        <mxCell id="lG2hJ0UVWPt9uEfmSFMh-0" />
        <mxCell id="lG2hJ0UVWPt9uEfmSFMh-1" parent="lG2hJ0UVWPt9uEfmSFMh-0" />
        <mxCell id="lG2hJ0UVWPt9uEfmSFMh-2" value="" style="whiteSpace=wrap;html=1;aspect=fixed;" vertex="1" parent="lG2hJ0UVWPt9uEfmSFMh-1">
          <mxGeometry x="260" y="120" width="300" height="300" as="geometry" />
        </mxCell>
        <mxCell id="lG2hJ0UVWPt9uEfmSFMh-6" style="edgeStyle=orthogonalEdgeStyle;rounded=0;orthogonalLoop=1;jettySize=auto;html=1;" edge="1" parent="lG2hJ0UVWPt9uEfmSFMh-1" source="lG2hJ0UVWPt9uEfmSFMh-3" target="lG2hJ0UVWPt9uEfmSFMh-5">
          <mxGeometry relative="1" as="geometry" />
        </mxCell>
        <mxCell id="lG2hJ0UVWPt9uEfmSFMh-7" style="edgeStyle=orthogonalEdgeStyle;rounded=0;orthogonalLoop=1;jettySize=auto;html=1;" edge="1" parent="lG2hJ0UVWPt9uEfmSFMh-1" source="lG2hJ0UVWPt9uEfmSFMh-3" target="lG2hJ0UVWPt9uEfmSFMh-4">
          <mxGeometry relative="1" as="geometry" />
        </mxCell>
        <mxCell id="lG2hJ0UVWPt9uEfmSFMh-3" value="" style="whiteSpace=wrap;html=1;aspect=fixed;" vertex="1" parent="lG2hJ0UVWPt9uEfmSFMh-1">
          <mxGeometry x="300" y="150" width="80" height="80" as="geometry" />
        </mxCell>
        <mxCell id="lG2hJ0UVWPt9uEfmSFMh-8" style="edgeStyle=orthogonalEdgeStyle;rounded=0;orthogonalLoop=1;jettySize=auto;html=1;" edge="1" parent="lG2hJ0UVWPt9uEfmSFMh-1" source="lG2hJ0UVWPt9uEfmSFMh-4" target="lG2hJ0UVWPt9uEfmSFMh-5">
          <mxGeometry relative="1" as="geometry" />
        </mxCell>
        <mxCell id="lG2hJ0UVWPt9uEfmSFMh-4" value="" style="whiteSpace=wrap;html=1;aspect=fixed;" vertex="1" parent="lG2hJ0UVWPt9uEfmSFMh-1">
          <mxGeometry x="460" y="270" width="80" height="80" as="geometry" />
        </mxCell>
        <mxCell id="lG2hJ0UVWPt9uEfmSFMh-5" value="" style="whiteSpace=wrap;html=1;aspect=fixed;" vertex="1" parent="lG2hJ0UVWPt9uEfmSFMh-1">
          <mxGeometry x="330" y="280" width="80" height="80" as="geometry" />
        </mxCell>
        <mxCell id="lG2hJ0UVWPt9uEfmSFMh-9" value="" style="whiteSpace=wrap;html=1;aspect=fixed;" vertex="1" parent="lG2hJ0UVWPt9uEfmSFMh-1">
          <mxGeometry x="50" y="170" width="80" height="80" as="geometry" />
        </mxCell>
      </root>
    </mxGraphModel>
  </diagram>
  <diagram id="LvPo_MKOxiC9g-1z4QzF" name="Page-3">
    <mxGraphModel dx="868" dy="494" grid="1" gridSize="10" guides="1" tooltips="1" connect="1" arrows="1" fold="1" page="1" pageScale="1" pageWidth="850" pageHeight="1100" math="0" shadow="0">
      <root>
        <mxCell id="SV8smBbXg1MeAaz7GK_t-0" />
        <mxCell id="SV8smBbXg1MeAaz7GK_t-1" parent="SV8smBbXg1MeAaz7GK_t-0" />
        <mxCell id="SV8smBbXg1MeAaz7GK_t-15" style="edgeStyle=orthogonalEdgeStyle;rounded=0;orthogonalLoop=1;jettySize=auto;html=1;entryX=0.5;entryY=1;entryDx=0;entryDy=0;" edge="1" parent="SV8smBbXg1MeAaz7GK_t-1" source="SV8smBbXg1MeAaz7GK_t-2" target="SV8smBbXg1MeAaz7GK_t-6">
          <mxGeometry relative="1" as="geometry" />
        </mxCell>
        <mxCell id="SV8smBbXg1MeAaz7GK_t-16" style="edgeStyle=orthogonalEdgeStyle;rounded=0;orthogonalLoop=1;jettySize=auto;html=1;entryX=0.5;entryY=1;entryDx=0;entryDy=0;" edge="1" parent="SV8smBbXg1MeAaz7GK_t-1" source="SV8smBbXg1MeAaz7GK_t-2" target="SV8smBbXg1MeAaz7GK_t-8">
          <mxGeometry relative="1" as="geometry" />
        </mxCell>
        <mxCell id="SV8smBbXg1MeAaz7GK_t-2" value="Ingress services" style="whiteSpace=wrap;html=1;aspect=fixed;fillColor=#fff2cc;strokeColor=#d6b656;" vertex="1" parent="SV8smBbXg1MeAaz7GK_t-1">
          <mxGeometry x="30" y="230" width="80" height="80" as="geometry" />
        </mxCell>
        <mxCell id="SV8smBbXg1MeAaz7GK_t-5" value="Multi Client (Kind Deplymnet)-2" style="whiteSpace=wrap;html=1;aspect=fixed;fillColor=#d5e8d4;strokeColor=#82b366;" vertex="1" parent="SV8smBbXg1MeAaz7GK_t-1">
          <mxGeometry x="320" y="20" width="160" height="160" as="geometry" />
        </mxCell>
        <mxCell id="SV8smBbXg1MeAaz7GK_t-6" value="Cluster IP" style="rounded=0;whiteSpace=wrap;html=1;rotation=90;fillColor=#d5e8d4;strokeColor=#82b366;" vertex="1" parent="SV8smBbXg1MeAaz7GK_t-1">
          <mxGeometry x="220" y="70" width="160" height="60" as="geometry" />
        </mxCell>
        <mxCell id="SV8smBbXg1MeAaz7GK_t-17" style="edgeStyle=orthogonalEdgeStyle;rounded=0;orthogonalLoop=1;jettySize=auto;html=1;" edge="1" parent="SV8smBbXg1MeAaz7GK_t-1" source="SV8smBbXg1MeAaz7GK_t-7" target="SV8smBbXg1MeAaz7GK_t-12">
          <mxGeometry relative="1" as="geometry" />
        </mxCell>
        <mxCell id="SV8smBbXg1MeAaz7GK_t-18" style="edgeStyle=orthogonalEdgeStyle;rounded=0;orthogonalLoop=1;jettySize=auto;html=1;entryX=0.5;entryY=1;entryDx=0;entryDy=0;" edge="1" parent="SV8smBbXg1MeAaz7GK_t-1" source="SV8smBbXg1MeAaz7GK_t-7" target="SV8smBbXg1MeAaz7GK_t-14">
          <mxGeometry relative="1" as="geometry" />
        </mxCell>
        <mxCell id="SV8smBbXg1MeAaz7GK_t-7" value="Multi Server (Kind Deplymnet)-2" style="whiteSpace=wrap;html=1;aspect=fixed;fillColor=#e1d5e7;strokeColor=#9673a6;" vertex="1" parent="SV8smBbXg1MeAaz7GK_t-1">
          <mxGeometry x="330" y="300" width="160" height="160" as="geometry" />
        </mxCell>
        <mxCell id="SV8smBbXg1MeAaz7GK_t-8" value="Cluster IP" style="rounded=0;whiteSpace=wrap;html=1;rotation=90;fillColor=#d5e8d4;strokeColor=#82b366;" vertex="1" parent="SV8smBbXg1MeAaz7GK_t-1">
          <mxGeometry x="225.32" y="355.31" width="169.37" height="60" as="geometry" />
        </mxCell>
        <mxCell id="SV8smBbXg1MeAaz7GK_t-9" value="Worker (Kind Deplymnet)-2" style="whiteSpace=wrap;html=1;aspect=fixed;fillColor=#dae8fc;strokeColor=#6c8ebf;" vertex="1" parent="SV8smBbXg1MeAaz7GK_t-1">
          <mxGeometry x="650" y="20" width="160" height="160" as="geometry" />
        </mxCell>
        <mxCell id="SV8smBbXg1MeAaz7GK_t-21" style="edgeStyle=orthogonalEdgeStyle;rounded=0;orthogonalLoop=1;jettySize=auto;html=1;entryX=0.6;entryY=0.983;entryDx=0;entryDy=0;entryPerimeter=0;" edge="1" parent="SV8smBbXg1MeAaz7GK_t-1" source="SV8smBbXg1MeAaz7GK_t-10" target="SV8smBbXg1MeAaz7GK_t-12">
          <mxGeometry relative="1" as="geometry" />
        </mxCell>
        <mxCell id="SV8smBbXg1MeAaz7GK_t-22" style="edgeStyle=orthogonalEdgeStyle;rounded=0;orthogonalLoop=1;jettySize=auto;html=1;entryX=0.75;entryY=1;entryDx=0;entryDy=0;" edge="1" parent="SV8smBbXg1MeAaz7GK_t-1" source="SV8smBbXg1MeAaz7GK_t-10" target="SV8smBbXg1MeAaz7GK_t-12">
          <mxGeometry relative="1" as="geometry" />
        </mxCell>
        <mxCell id="SV8smBbXg1MeAaz7GK_t-10" value="Cluster IP" style="rounded=0;whiteSpace=wrap;html=1;rotation=90;fillColor=#f8cecc;strokeColor=#b85450;" vertex="1" parent="SV8smBbXg1MeAaz7GK_t-1">
          <mxGeometry x="540" y="70" width="160" height="60" as="geometry" />
        </mxCell>
        <mxCell id="SV8smBbXg1MeAaz7GK_t-11" value="Multi Radis(Kind Deplymnet)-" style="whiteSpace=wrap;html=1;aspect=fixed;fillColor=#dae8fc;strokeColor=#6c8ebf;" vertex="1" parent="SV8smBbXg1MeAaz7GK_t-1">
          <mxGeometry x="700" y="190" width="160" height="160" as="geometry" />
        </mxCell>
        <mxCell id="SV8smBbXg1MeAaz7GK_t-12" value="Cluster IP" style="rounded=0;whiteSpace=wrap;html=1;rotation=90;fillColor=#f8cecc;strokeColor=#b85450;" vertex="1" parent="SV8smBbXg1MeAaz7GK_t-1">
          <mxGeometry x="590" y="240" width="160" height="60" as="geometry" />
        </mxCell>
        <mxCell id="SV8smBbXg1MeAaz7GK_t-19" style="edgeStyle=orthogonalEdgeStyle;rounded=0;orthogonalLoop=1;jettySize=auto;html=1;" edge="1" parent="SV8smBbXg1MeAaz7GK_t-1" source="SV8smBbXg1MeAaz7GK_t-13">
          <mxGeometry relative="1" as="geometry">
            <mxPoint x="740" y="560" as="targetPoint" />
          </mxGeometry>
        </mxCell>
        <mxCell id="SV8smBbXg1MeAaz7GK_t-13" value="Multi Postgress (Kind Deplymnet)-2" style="whiteSpace=wrap;html=1;aspect=fixed;fillColor=#dae8fc;strokeColor=#6c8ebf;" vertex="1" parent="SV8smBbXg1MeAaz7GK_t-1">
          <mxGeometry x="650" y="370" width="160" height="160" as="geometry" />
        </mxCell>
        <mxCell id="SV8smBbXg1MeAaz7GK_t-14" value="Cluster IP" style="rounded=0;whiteSpace=wrap;html=1;rotation=90;fillColor=#f8cecc;strokeColor=#b85450;" vertex="1" parent="SV8smBbXg1MeAaz7GK_t-1">
          <mxGeometry x="550" y="420" width="160" height="60" as="geometry" />
        </mxCell>
        <mxCell id="SV8smBbXg1MeAaz7GK_t-20" value="PVC" style="rounded=0;whiteSpace=wrap;html=1;fillColor=#fff2cc;strokeColor=#d6b656;" vertex="1" parent="SV8smBbXg1MeAaz7GK_t-1">
          <mxGeometry x="670" y="560" width="120" height="60" as="geometry" />
        </mxCell>
      </root>
    </mxGraphModel>
  </diagram>
</mxfile>
